<?xml version="1.0" encoding="UTF-8"?>
<svg width="410" height="194" xmlns="http://www.w3.org/2000/svg">
<style>text {
    color: #a89f9bff;
}

tspan {
    fill: #f3f3f3;
}

/* @media (prefers-color-scheme: dark) {
}
@media (prefers-color-scheme: light) {
    tspan {
        fill: #333;
        fill: #f3f3f3;
    }
} */

@keyframes fadeIn {
    from {
        opacity: 0;
    }
    to {
        opacity: 1;
    }
}
@keyframes slideIn {
    from {
        width: 0;
    }
    to {
        width: 660;
    }
}

#lang_legend,
#title {
    opacity: 0;
    animation: fadeIn 1s ease-in forwards;
}
#bar_back {
    animation: slideIn 1.7s ease-in forwards;
}
</style>
<rect id="border" x="1" y="1" width="408" height="192" fill='#19140fff' stroke-width="1" rx="15" ry="15" />
<text id="title" x="20" y="40" font-size="18" font-weight="bold" fill='#db4c0fff' font-family="system-ui, -apple-system, sans-serif">Most Used Languages</text>

<defs>
    <clipPath id="roundedClip">
        <rect id="bar_back" x="20" y="60" width="370" height="10" rx="5" ry="5">
        </rect>
    </clipPath>
</defs>
<rect width="370" height="10" x="20" y="60" rx="5" ry="5" fill='#ccc' />
<g clip-path="url(#roundedClip)">
    <rect x="20" y="60" width="200" height="10" fill="#3178c6"> <title>TypeScript 54.01%</title> </rect>
    <rect x="220" y="60" width="90" height="10" fill="#3572A5"> <title>Python 24.44%</title> </rect>
    <rect x="310" y="60" width="50" height="10" fill="#dea584"> <title>Rust 13.39%</title> </rect>
    <rect x="360" y="60" width="16" height="10" fill="#f1e05a"> <title>JavaScript 4.28%</title> </rect>
    <rect x="376" y="60" width="9" height="10" fill="#b07219"> <title>Java 2.42%</title> </rect>
    <rect x="385" y="60" width="4" height="10" fill="#89e051"> <title>Shell 1.21%</title> </rect>
    <rect x="389" y="60" width="1" height="10" fill="#f34b7d"> <title>C++ 0.24%</title> </rect>
</g>
<g id="lang_legend">
<circle cx="30" cy="100" r="6" fill="#3178c6" />
<text x="46" y="104" font-size="13" font-family="system-ui, -apple-system, sans-serif" fill='currentColor'><tspan>TypeScript</tspan> 54.01%</text>
<circle cx="225" cy="100" r="6" fill="#3572A5" />
<text x="241" y="104" font-size="13" font-family="system-ui, -apple-system, sans-serif" fill='currentColor'><tspan>Python</tspan> 24.44%</text>
<circle cx="30" cy="124" r="6" fill="#dea584" />
<text x="46" y="128" font-size="13" font-family="system-ui, -apple-system, sans-serif" fill='currentColor'><tspan>Rust</tspan> 13.39%</text>
<circle cx="225" cy="124" r="6" fill="#f1e05a" />
<text x="241" y="128" font-size="13" font-family="system-ui, -apple-system, sans-serif" fill='currentColor'><tspan>JavaScript</tspan> 4.28%</text>
<circle cx="30" cy="148" r="6" fill="#b07219" />
<text x="46" y="152" font-size="13" font-family="system-ui, -apple-system, sans-serif" fill='currentColor'><tspan>Java</tspan> 2.42%</text>
<circle cx="225" cy="148" r="6" fill="#89e051" />
<text x="241" y="152" font-size="13" font-family="system-ui, -apple-system, sans-serif" fill='currentColor'><tspan>Shell</tspan> 1.21%</text>
<circle cx="30" cy="172" r="6" fill="#f34b7d" />
<text x="46" y="176" font-size="13" font-family="system-ui, -apple-system, sans-serif" fill='currentColor'><tspan>C++</tspan> 0.24%</text>
</g>
</svg>
